<?xml version="1.0" standalone="no"?>
<!DOCTYPE svg PUBLIC "-//W3C//DTD SVG 20010904//EN"
 "http://www.w3.org/TR/2001/REC-SVG-20010904/DTD/svg10.dtd">
<svg version="1.0" xmlns="http://www.w3.org/2000/svg"
 width="700.000000pt" height="700.000000pt" viewBox="0 0 700.000000 700.000000"
 preserveAspectRatio="xMidYMid meet">
<metadata>
Created by potrace 1.14, written by Peter Selinger 2001-2017
</metadata>
<g transform="translate(0.000000,700.000000) scale(0.100000,-0.100000)"
fill="#000000" stroke="none">
<path d="M3380 6929 c-41 -3 -100 -12 -130 -18 -30 -6 -64 -13 -76 -15 -37 -7
-178 -58 -243 -89 -275 -127 -517 -367 -644 -639 -26 -57 -97 -251 -96 -266 0
-6 -3 -27 -16 -90 -42 -216 -8 -508 85 -731 70 -169 165 -309 304 -446 152
-150 361 -276 541 -325 167 -47 224 -54 395 -55 180 0 268 14 423 65 321 108
598 339 755 632 177 327 211 680 100 1043 -181 596 -769 989 -1398 934z"/>
<path d="M1317 4824 c-1 -1 -38 -4 -81 -8 -44 -4 -82 -9 -86 -11 -4 -3 -24 -7
-44 -11 -63 -10 -216 -62 -300 -103 -170 -83 -349 -223 -451 -355 -16 -21 -35
-44 -40 -50 -53 -57 -148 -239 -194 -370 -66 -186 -89 -458 -55 -652 81 -465
396 -855 830 -1027 172 -69 299 -92 509 -91 160 0 251 14 399 61 386 122 719
445 850 825 32 93 63 224 71 298 6 62 7 264 1 295 -2 11 -7 40 -10 65 -55 372
-279 715 -603 924 -161 104 -377 182 -559 201 -58 7 -232 13 -237 9z"/>
<path d="M5527 4825 c-1 -2 -30 -6 -65 -9 -557 -58 -1030 -475 -1157 -1021
-25 -107 -30 -157 -30 -320 0 -151 6 -221 25 -285 6 -19 13 -48 16 -65 14 -78
122 -314 179 -390 17 -22 39 -53 49 -70 34 -53 219 -229 296 -281 160 -109
332 -183 515 -220 128 -26 372 -26 510 1 51 10 179 45 200 55 11 5 48 21 82
35 142 58 321 182 433 301 177 189 287 397 346 659 22 97 27 375 9 480 -93
544 -486 966 -1015 1093 -47 11 -110 24 -140 27 -51 7 -247 14 -253 10z"/>
<path d="M3327 2704 c-107 -14 -248 -51 -332 -89 -30 -13 -55 -22 -55 -19 0 3
-13 -4 -29 -15 -16 -12 -33 -21 -37 -21 -15 0 -158 -94 -218 -144 -543 -447
-657 -1206 -270 -1788 207 -312 529 -516 923 -585 14 -2 92 -6 172 -7 171 -4
294 15 454 69 270 92 521 284 678 521 37 55 67 105 67 110 0 5 8 21 18 34 18
26 26 46 72 176 46 131 71 274 71 414 0 68 -11 221 -16 230 -2 3 -6 24 -10 47
-6 42 -43 172 -64 227 -24 61 -105 216 -113 216 -4 0 -8 6 -8 13 0 19 -132
182 -203 250 -288 277 -698 412 -1100 361z"/>
</g>
</svg>
